# xmcd
# 
# Track frame offsets:
#     150
#     17414
#     36022
#     55314
#     66540
#     95327
#     103814
#     120147
#     139918
# 
# Disc length: 2546
# 
# Revision: 3
# Processed by: cddbd v1.5.2PL0 Copyright (c) Steve Scherf et al.
# Submitted via: fre:ac v1.0.31
# 
DISCID=7409f009
DTITLE=Paul McCartney - Red Rose Speedway Archive Collection Disc 1
DYEAR=1973
DGENRE=Rock/Pop
TTITLE0=Big Barn Bed
TTITLE1=My Love
TTITLE2=Get On The Right Thing
TTITLE3=One More Kiss
TTITLE4=Little Lamb Dragonfly
TTITLE5=Single Pigeon
TTITLE6=When The Night
TTITLE7=Loup (1st Indian On The Moon)
TTITLE8=Medley: Hold Me Tight - Lazy Dynamite - Hands Of Love - Power Cut
EXTD=
EXTT0=
EXTT1=
EXTT2=
EXTT3=
EXTT4=
EXTT5=
EXTT6=
EXTT7=
EXTT8=
PLAYORDER=
